<?xml version="1.0" standalone="no"?><!-- Generator: Gravit.io --><svg xmlns="http://www.w3.org/2000/svg" xmlns:xlink="http://www.w3.org/1999/xlink" style="isolation:isolate" viewBox="0 0 1366 882" width="1366" height="882"><g><path d=" M 1366 403.09 C 1360.71 402.363 1355.364 401.997 1350 402 C 1334.36 401.99 1318.88 405.12 1304.47 411.2 C 1290.58 417.09 1277.95 425.61 1267.28 436.28 C 1256.61 446.95 1248.09 459.58 1242.2 473.48 C 1236.12 487.88 1232.99 503.36 1233 519 L 1233 519 C 1232.99 534.64 1236.12 550.12 1242.2 564.53 C 1248.09 578.42 1256.61 591.05 1267.28 601.72 C 1277.95 612.39 1290.58 620.91 1304.47 626.8 C 1318.88 632.88 1334.36 636.01 1350 636 C 1355.364 636.003 1360.71 635.637 1366 634.91 L 1366 624.807 C 1360.716 625.603 1355.368 626.004 1350 626 C 1335.7 626.01 1321.54 623.15 1308.37 617.59 C 1295.66 612.2 1284.11 604.41 1274.36 594.64 C 1264.59 584.89 1256.8 573.34 1251.41 560.63 C 1245.85 547.46 1242.99 533.3 1243 519 L 1243 519 C 1242.99 504.7 1245.85 490.54 1251.41 477.37 C 1256.8 464.66 1264.59 453.11 1274.36 443.36 C 1284.11 433.59 1295.66 425.8 1308.37 420.41 C 1321.54 414.85 1335.7 411.99 1350 412 C 1355.368 411.996 1360.716 412.397 1366 413.193 L 1366 403.09 Z " fill-rule="evenodd" fill="rgb(17,0,255)"/><path d=" M 1034.419 0 C 1028.611 9.342 1023.523 19.14 1019.21 29.31 C 1013.77 42.17 1009.62 55.53 1006.82 69.21 C 1003.94 83.29 1002.49 97.63 1002.5 112 L 1002.5 112 C 1002.49 126.37 1003.94 140.71 1006.82 154.8 C 1009.62 168.47 1013.77 181.83 1019.21 194.69 C 1029.91 219.92 1045.38 242.86 1064.77 262.23 C 1084.14 281.62 1107.08 297.09 1132.31 307.79 C 1145.17 313.23 1158.53 317.38 1172.2 320.18 C 1186.29 323.06 1200.63 324.51 1215 324.5 C 1229.37 324.51 1243.71 323.06 1257.8 320.18 C 1271.47 317.38 1284.83 313.23 1297.69 307.79 C 1322.92 297.09 1345.86 281.62 1365.23 262.23 C 1365.487 261.973 1365.744 261.715 1366 261.457 L 1366 239.259 C 1362.392 243.535 1358.599 247.663 1354.63 251.63 C 1336.62 269.65 1315.3 284.03 1291.84 293.97 C 1279.9 299.03 1267.49 302.88 1254.79 305.48 C 1241.7 308.16 1228.36 309.51 1215 309.5 C 1201.64 309.51 1188.3 308.16 1175.21 305.48 C 1162.51 302.88 1150.1 299.03 1138.16 293.97 C 1114.7 284.03 1093.38 269.65 1075.37 251.63 C 1057.35 233.62 1042.97 212.3 1033.03 188.84 C 1027.97 176.9 1024.12 164.49 1021.52 151.79 C 1018.84 138.7 1017.49 125.36 1017.5 112 L 1017.5 112 C 1017.49 98.63 1018.84 85.3 1021.52 72.21 C 1024.12 59.51 1027.97 47.1 1033.03 35.16 C 1038.272 22.788 1044.749 11.01 1052.344 0 L 1034.419 0 Z " fill-rule="evenodd" fill="rgb(17,0,255)"/><path d=" M 1066.75 438.38 C 1066.74 430.78 1068.26 423.25 1071.22 416.25 C 1074.08 409.49 1078.22 403.35 1083.41 398.17 C 1088.6 392.98 1094.74 388.84 1101.49 385.97 C 1108.49 383.02 1116.02 381.49 1123.62 381.5 C 1131.23 381.49 1138.75 383.02 1145.75 385.97 C 1152.51 388.84 1158.65 392.98 1163.83 398.17 C 1169.02 403.35 1173.16 409.49 1176.03 416.25 C 1178.98 423.25 1180.51 430.77 1180.5 438.38 C 1180.51 445.98 1178.98 453.51 1176.03 460.51 C 1173.16 467.26 1169.02 473.4 1163.83 478.59 C 1158.65 483.78 1152.51 487.92 1145.75 490.78 C 1138.75 493.74 1131.23 495.26 1123.62 495.25 C 1116.02 495.26 1108.49 493.74 1101.49 490.78 C 1094.74 487.92 1088.6 483.78 1083.41 478.59 C 1078.22 473.4 1074.08 467.26 1071.22 460.51 C 1068.26 453.51 1066.74 445.98 1066.75 438.38 Z  M 1071.75 438.38 C 1071.74 431.44 1073.13 424.58 1075.83 418.19 C 1078.44 412.03 1082.21 406.43 1086.95 401.7 C 1091.68 396.97 1097.28 393.19 1103.44 390.58 C 1109.83 387.88 1116.69 386.49 1123.62 386.5 C 1130.56 386.49 1137.42 387.88 1143.81 390.58 C 1149.97 393.19 1155.57 396.97 1160.3 401.7 C 1165.03 406.43 1168.81 412.03 1171.42 418.19 C 1174.12 424.58 1175.51 431.44 1175.5 438.38 C 1175.51 445.31 1174.12 452.17 1171.42 458.56 C 1168.81 464.72 1165.03 470.32 1160.3 475.05 C 1155.57 479.79 1149.97 483.56 1143.81 486.17 C 1137.42 488.87 1130.56 490.26 1123.62 490.25 C 1116.69 490.26 1109.83 488.87 1103.44 486.17 C 1097.28 483.56 1091.68 479.79 1086.95 475.05 C 1082.21 470.32 1078.44 464.72 1075.83 458.56 C 1073.13 452.17 1071.74 445.31 1071.75 438.38 Z " fill-rule="evenodd" fill="rgb(17,0,255)"/><linearGradient id="_lgradient_8" x1="0.18079548487798705" y1="0.41915687271541024" x2="1.0625546689576155" y2="1.150693528619812" gradientTransform="matrix(1366,0,0,882,0,0)" gradientUnits="userSpaceOnUse"><stop offset="0%" stop-opacity="1" style="stop-color:rgb(153,0,255)"/><stop offset="97.82608695652173%" stop-opacity="1" style="stop-color:rgb(234,0,255)"/></linearGradient><path d=" M 1366 764.905 C 1365.04 764.244 1364.027 763.609 1362.962 763 C 1287.799 720 1106.106 749.769 973.115 656 C 840.125 562.231 634.051 578.372 550.196 520 C 466.341 461.628 325.423 183.865 229.499 112 Q 133.575 40.135 0 0 L 0 0 L 0 656.172 L 0 882 L 1334.043 882 C 1347.043 865.93 1358.015 850.405 1366 836.031 L 1366 764.905 Z " fill-rule="evenodd" fill="url(#_lgradient_8)"/></g></svg>